<?xml version="1.0" encoding="utf-8"?>
<!-- Generator: Adobe Illustrator 21.1.0, SVG Export Plug-In . SVG Version: 6.00 Build 0)  -->
<svg version="1.1" id="Layer_1" xmlns="http://www.w3.org/2000/svg" xmlns:xlink="http://www.w3.org/1999/xlink" x="0px" y="0px"
	 viewBox="0 0 680 680" enable-background="new 0 0 680 680" xml:space="preserve">
<g>
	<linearGradient id="SVGID_1_" gradientUnits="userSpaceOnUse" x1="175.746" y1="402.6641" x2="220.6461" y2="149.8926">
		<stop  offset="0.0357" style="stop-color:#8181EC"/>
		<stop  offset="0.9949" style="stop-color:#B276FC"/>
	</linearGradient>
	<path fill="url(#SVGID_1_)" d="M225.255,451.781c20.674,0,40.342-4.281,58.193-11.976c-44.059-28.406-68.093-76.719-67.343-125.993
		c-1.141,0.811-2.291,1.601-3.416,2.452c1.124-0.85,2.274-1.64,3.416-2.452c0.38-24.977,7.088-50.191,20.832-73.17
		c25.476-42.592,69.093-67.608,115.075-71.167L190.27,82.456c-46.203-24.858-102.21,8.607-102.21,61.073v214.339
		C109.407,412.813,162.764,451.781,225.255,451.781z"/>
	<linearGradient id="SVGID_2_" gradientUnits="userSpaceOnUse" x1="117.3121" y1="485.2236" x2="388.3762" y2="400.4121">
		<stop  offset="0.0255" style="stop-color:#0AB4E0"/>
		<stop  offset="1" style="stop-color:#67E9FF"/>
	</linearGradient>
	<path fill="url(#SVGID_2_)" d="M407.027,343.177c-9.923-13.113-21.734-23.95-34.754-32.453
		c-2.373,57.974-38.262,107.287-88.825,129.081c1.405,0.906,2.8,1.823,4.246,2.688c-1.446-0.865-2.841-1.782-4.246-2.688
		c-17.852,7.694-37.519,11.976-58.193,11.976c-62.491,0-115.848-38.968-137.195-93.913v178.604
		c0,52.465,56.006,85.931,102.21,61.073l238.157-128.133C441.777,427.837,435.378,380.641,407.027,343.177z"/>
	<linearGradient id="SVGID_3_" gradientUnits="userSpaceOnUse" x1="252.3455" y1="195.7864" x2="528.3986" y2="402.8262">
		<stop  offset="0" style="stop-color:#FB3C89"/>
		<stop  offset="1" style="stop-color:#F9D257"/>
	</linearGradient>
	<path fill="url(#SVGID_3_)" d="M555.447,278.927L352.012,169.475c-45.982,3.56-89.599,28.575-115.075,71.167
		c-13.744,22.979-20.452,48.193-20.832,73.17c47.573-33.817,109.64-33.474,156.168-3.089c0.083-2.031,0.155-4.065,0.155-6.116
		c0,2.051-0.072,4.085-0.155,6.116c13.02,8.503,24.831,19.34,34.754,32.453c28.35,37.464,34.749,84.661,21.399,126.235
		l127.02-68.339C604.104,374.895,604.104,305.105,555.447,278.927z"/>
</g>
<g>
	<linearGradient id="SVGID_4_" gradientUnits="userSpaceOnUse" x1="208.9729" y1="526.561" x2="216.4562" y2="275.8683">
		<stop  offset="0.0051" style="stop-color:#662D91"/>
		<stop  offset="0.947" style="stop-color:#1B1464;stop-opacity:0.05"/>
		<stop  offset="1" style="stop-color:#A13B5B;stop-opacity:0"/>
	</linearGradient>
	<path fill="url(#SVGID_4_)" d="M225.255,451.781c20.674,0,40.342-4.281,58.193-11.976c-44.059-28.406-68.093-76.719-67.343-125.993
		c-1.141,0.811-2.291,1.601-3.416,2.452c1.124-0.85,2.274-1.64,3.416-2.452c0.38-24.977,7.088-50.191,20.832-73.17
		c25.476-42.592,69.093-67.608,115.075-71.167L190.27,82.456c-46.203-24.858-102.21,8.607-102.21,61.073v214.339
		C109.407,412.813,162.764,451.781,225.255,451.781z"/>
	<linearGradient id="SVGID_5_" gradientUnits="userSpaceOnUse" x1="516.652" y1="337.1637" x2="292.7747" y2="420.7279">
		<stop  offset="0" style="stop-color:#1B1464"/>
		<stop  offset="1" style="stop-color:#2E3192;stop-opacity:0"/>
	</linearGradient>
	<path fill="url(#SVGID_5_)" d="M407.027,343.177c-9.923-13.113-21.734-23.95-34.754-32.453
		c-2.373,57.974-38.262,107.287-88.825,129.081c1.405,0.906,2.8,1.823,4.246,2.688c-1.446-0.865-2.841-1.782-4.246-2.688
		c-17.852,7.694-37.519,11.976-58.193,11.976c-62.491,0-115.848-38.968-137.195-93.913v178.604
		c0,52.465,56.006,85.931,102.21,61.073l238.157-128.133C441.777,427.837,435.378,380.641,407.027,343.177z"/>
	<linearGradient id="SVGID_6_" gradientUnits="userSpaceOnUse" x1="238.6221" y1="211.789" x2="365.8393" y2="293.2746">
		<stop  offset="0" style="stop-color:#9C365D"/>
		<stop  offset="1" style="stop-color:#A13B5B;stop-opacity:0"/>
	</linearGradient>
	<path fill="url(#SVGID_6_)" d="M555.447,278.927L352.012,169.475c-45.982,3.56-89.599,28.575-115.075,71.167
		c-13.744,22.979-20.452,48.193-20.832,73.17c47.573-33.817,109.64-33.474,156.168-3.089c0.083-2.031,0.155-4.065,0.155-6.116
		c0,2.051-0.072,4.085-0.155,6.116c13.02,8.503,24.831,19.34,34.754,32.453c28.35,37.464,34.749,84.661,21.399,126.235
		l127.02-68.339C604.104,374.895,604.104,305.105,555.447,278.927z"/>
</g>
<linearGradient id="SVGID_7_" gradientUnits="userSpaceOnUse" x1="171.0462" y1="324.7354" x2="305.331" y2="192.945">
	<stop  offset="0.0051" style="stop-color:#662D91"/>
	<stop  offset="0.952" style="stop-color:#7768D2"/>
</linearGradient>
<path fill="url(#SVGID_7_)" d="M352.472,170.377c-18.192,2.782-35.631,8.145-51.793,15.746
	c-16.089,7.717-30.769,18.056-42.568,31.106c-6.033,6.393-11.321,13.498-15.768,21.127c-2.455,3.682-4.287,7.733-6.392,11.639
	c-1.681,4.108-3.771,8.063-5.222,12.296c-6.37,16.719-10.252,34.527-12.958,52.764c-1.445-18.384,0.298-37.19,5.581-55.254
	c5.118-18.084,14.51-35.266,27.418-49.321c6.522-6.952,13.761-13.245,21.656-18.539c7.942-5.214,16.371-9.646,25.197-12.947
	C315.21,172.36,334.025,169.027,352.472,170.377z"/>
<linearGradient id="SVGID_8_" gradientUnits="userSpaceOnUse" x1="467.2175" y1="501.1261" x2="352.4725" y2="261.6584">
	<stop  offset="0" style="stop-color:#FB3C89"/>
	<stop  offset="1" style="stop-color:#F9D257"/>
</linearGradient>
<path fill="url(#SVGID_8_)" d="M428.427,469.412c2.623-15.397,3.444-30.743,2.394-45.848c-1.087-15.08-4.079-29.933-9.585-43.813
	c-0.663-1.742-1.128-3.569-1.925-5.256l-2.422-5.05c-1.705-3.319-2.988-6.874-5.129-9.96l-5.819-9.636
	c-2.089-3.117-4.552-5.981-6.753-9.057c-2.24-3.053-4.502-6.105-7.219-8.772l-7.771-8.431c-2.445-3.012-5.631-5.194-8.386-7.92
	c-2.86-2.603-5.69-5.288-8.517-8.04c3.407,1.872,6.81,3.811,10.184,5.832l5.055,3.067c1.712,0.999,3.371,2.071,4.867,3.353
	c5.993,5.086,12.649,9.649,17.708,15.855c11.346,11.306,19.509,25.598,25.455,40.493c1.222,3.835,2.871,7.543,3.721,11.479
	c0.881,3.923,1.92,7.815,2.653,11.759l1.376,11.946c0.241,3.992,0.217,7.998,0.259,11.978
	C438.194,439.297,435.024,455.178,428.427,469.412z"/>
<linearGradient id="SVGID_9_" gradientUnits="userSpaceOnUse" x1="254.5804" y1="383.84" x2="66.249" y2="434.1448">
	<stop  offset="0" style="stop-color:#13E3ED"/>
	<stop  offset="1" style="stop-color:#662D91"/>
</linearGradient>
<path fill="url(#SVGID_9_)" d="M89.398,361.156c9.596,16.595,21.281,31.598,34.572,44.69c13.376,12.982,28.681,23.792,45.583,30.993
	c8.365,3.81,17.245,6.366,26.251,8.218c8.99,2.087,18.26,2.707,27.552,3.027c18.633,0.263,37.433-2.452,56.162-6.679
	c-17.382,8.158-36.423,13.248-56.003,14.464c-19.558,1.293-39.66-2.067-57.907-9.871c-18.187-7.957-34.409-20.052-47.264-34.811
	C105.507,396.463,95.247,379.507,89.398,361.156z"/>
</svg>
